<svg xmlns="http://www.w3.org/2000/svg">
  <symbol id="food" viewBox="0 0 576 512" preserveAspectRatio="xMidYMid meet">
    <g clip-path="url(#clip0)">
      <path d="M53.8 8.60001L293 230.7C321.8 205.2 311 214.7 341.4 187.8C320 151.5 324.2 112.7 357.5 79.4C379.3 57.7 452.3 6.00001 456.2 3.20001C472.3 -8.59999 493.8 14.7 481 29.4L399.8 123.2C398.5 124.7 402.8 129.2 404.5 127.8L501.4 49C516.5 36.7 539.3 59.2 526.9 74.5L448.1 171.4C446.8 173 451.2 177.4 452.7 176L546.5 94.8C561.2 82.1 584.5 103.5 572.7 119.7C569.9 123.7 518.2 196.6 496.5 218.3C462.3 252.6 423 255.2 388 234.5C361.4 264.6 373.5 250.8 347 280.8L501.7 424.4C515 436.7 515.4 457.7 502.5 470.5L470.5 502.5C457.7 515.3 436.9 514.9 424.5 501.8C405.4 479.2 223.9 265.3 216 256C56 256 0 165.9 0 32.1C0 4.20001 33.3 -10.4 53.8 8.60001ZM73.4 470.6L105.4 502.6C118.4 515.6 139.8 515 152 501.2L269.5 368.5L212.9 301.7L74.8 424C61 436.3 60.3 457.6 73.4 470.6V470.6Z" />
    </g>
    <defs>
      <clipPath id="clip0">
        <rect width="576" height="512" fill="white"/>
      </clipPath>
    </defs>
  </symbol>

  <symbol id="clothes" viewBox="0 0 640 512" preserveAspectRatio="xMidYMid meet">
    <g clip-path="url(#clip0)">
      <path d="M631.2 96.5L436.5 0C416.4 27.8 371.9 47.2 320 47.2C268.1 47.2 223.6 27.8 203.5 0L8.79999 96.5C0.899992 100.5 -2.30001 110.1 1.59999 118L58.8 232.5C62.8 240.4 72.4 243.6 80.3 239.7L136.9 212C147.5 206.8 159.9 214.5 159.9 226.4V480C159.9 497.7 174.2 512 191.9 512H447.9C465.6 512 479.9 497.7 479.9 480V226.3C479.9 214.5 492.3 206.7 502.9 211.9L559.5 239.6C567.4 243.6 577 240.4 581 232.4L638.3 118C642.3 110.1 639.1 100.4 631.2 96.5V96.5Z" />
    </g>
    <defs>
      <clipPath id="clip0">
        <rect width="640" height="512" fill="white"/>
      </clipPath>
    </defs>
  </symbol>

  <symbol id="transport" viewBox="0 0 512 512" preserveAspectRatio="xMidYMid meet">
    <path d="M488 128H480V80C480 35.2 380.8 0 256 0C131.2 0 32 35.2 32 80V128H24C10.75 128 0 138.74 0 152V232C0 245.25 10.75 256 24 256H32V416C32 433.67 46.33 448 64 448V480C64 497.67 78.33 512 96 512H128C145.67 512 160 497.67 160 480V448H352V480C352 497.67 366.33 512 384 512H416C433.67 512 448 497.67 448 480V448H454.4C470.4 448 480 435.2 480 422.4V256H488C501.25 256 512 245.25 512 232V152C512 138.74 501.25 128 488 128ZM160 72C160 67.58 163.58 64 168 64H344C348.42 64 352 67.58 352 72V88C352 92.42 348.42 96 344 96H168C163.58 96 160 92.42 160 88V72ZM112 400C94.33 400 80 385.67 80 368C80 350.33 94.33 336 112 336C129.67 336 144 350.33 144 368C144 385.67 129.67 400 112 400ZM240 288H128C110.33 288 96 273.67 96 256V160C96 142.33 110.33 128 128 128H240V288ZM272 288V128H384C401.67 128 416 142.33 416 160V256C416 273.67 401.67 288 384 288H272ZM400 400C382.33 400 368 385.67 368 368C368 350.33 382.33 336 400 336C417.67 336 432 350.33 432 368C432 385.67 417.67 400 400 400Z" />
  </symbol>
</svg>
